<svg width="31" height="31" viewBox="0 0 31 31" fill="none" xmlns="http://www.w3.org/2000/svg">
<path d="M26.3124 4.54418C25.6773 4.54418 25.1624 3.61787 25.1624 2.47522C25.1624 1.33256 25.6773 0.40625 26.3124 0.40625C26.9475 0.40625 27.4624 1.33256 27.4624 2.47522C27.4624 3.61787 26.9475 4.54418 26.3124 4.54418Z" fill="#3E4347"/>
<path d="M29.6125 1.44092H27.2625V3.50988H29.6125V1.44092Z" fill="#3E4347"/>
<path d="M29.6125 3.50988C29.364 3.50988 29.1625 3.04673 29.1625 2.4754C29.1625 1.90407 29.364 1.44092 29.6125 1.44092C29.861 1.44092 30.0625 1.90407 30.0625 2.4754C30.0625 3.04673 29.861 3.50988 29.6125 3.50988Z" fill="#3E4347"/>
<path d="M26.3125 3.50988C26.0639 3.50988 25.8625 3.04673 25.8625 2.4754C25.8625 1.90407 26.0639 1.44092 26.3125 1.44092C26.561 1.44092 26.7625 1.90407 26.7625 2.4754C26.7625 3.04673 26.561 3.50988 26.3125 3.50988Z" fill="#83BF4F"/>
<path d="M3.3626 30.4064C1.54006 30.4064 0.0625973 28.7854 0.0625973 26.7857C0.0625973 24.7861 1.54006 23.165 3.3626 23.165C5.18514 23.165 6.6626 24.7861 6.6626 26.7857C6.6626 28.7854 5.18514 30.4064 3.3626 30.4064Z" fill="#3E4347"/>
<path d="M26.3125 1.44092H19.7625V3.50988H26.3125V1.44092Z" fill="#83BF4F"/>
<path d="M20.2125 4.54418C19.5774 4.54418 19.0625 3.61787 19.0625 2.47522C19.0625 1.33256 19.5774 0.40625 20.2125 0.40625C20.8477 0.40625 21.3625 1.33256 21.3625 2.47522C21.3625 3.61787 20.8477 4.54418 20.2125 4.54418Z" fill="#3E4347"/>
<path d="M19.7625 1.44092H16.4625V3.50988H19.7625V1.44092Z" fill="#3E4347"/>
<path d="M16.4626 3.50988C16.076 3.50988 15.7626 3.04673 15.7626 2.4754C15.7626 1.90407 16.076 1.44092 16.4626 1.44092C16.8492 1.44092 17.1626 1.90407 17.1626 2.4754C17.1626 3.04673 16.8492 3.50988 16.4626 3.50988Z" fill="#94989B"/>
<path d="M16.9126 25.7511C16.9126 25.7511 17.7626 21.6132 21.6126 21.6132C22.9626 21.6132 23.8126 20.6822 24.2126 20.0098C24.4126 19.6477 25.0626 18.5098 25.0626 18.5098L26.6626 19.5442L22.1626 27.8201H3.3626V25.7511H16.9126Z" fill="#83BF4F"/>
<path d="M1.71245 26.7854C1.71245 27.7682 2.46245 28.5958 3.36245 28.5958C4.26245 28.5958 5.01245 27.7682 5.01245 26.7854C5.01245 25.8027 4.26245 24.9751 3.36245 24.9751C2.46245 24.9751 1.71245 25.8027 1.71245 26.7854Z" fill="#D0D0D0"/>
<path d="M3.36245 22.9062C1.81245 22.9062 0.562449 22.6476 0.562449 22.3373C1.36245 21.7166 2.31245 21.3545 3.36245 21.3545C6.06245 21.3545 8.26245 23.7855 8.26245 26.7855H6.86245C6.86245 24.6648 5.26245 22.9062 3.36245 22.9062" fill="#83BF4F"/>
<path d="M3.3624 27.975C2.75489 27.975 2.2624 27.4424 2.2624 26.7854C2.2624 26.1283 2.75489 25.5957 3.3624 25.5957C3.96992 25.5957 4.4624 26.1283 4.4624 26.7854C4.4624 27.4424 3.96992 27.975 3.3624 27.975Z" fill="white"/>
<path opacity="0.5" d="M24.2125 20.0098C24.4125 19.6477 25.0625 18.5098 25.0625 18.5098L25.7625 18.9753L26.0625 20.7856L24.6125 23.4753L24.1125 20.3201C24.1125 20.1649 24.1625 20.1132 24.2125 20.0098" fill="#3E4347"/>
<path d="M2.16237 22.0271C2.16237 22.1823 3.86238 21.6651 5.51238 22.7513C7.16238 23.7858 7.66238 25.803 7.76238 25.7513C7.91238 25.803 7.56238 23.4754 5.76238 22.2858C3.91238 21.0444 2.06237 21.872 2.16237 22.0271" fill="#C7E755"/>
<path opacity="0.5" d="M27.7625 23.2679C27.6125 23.2162 27.4625 23.1644 27.3125 23.1644L27.2625 22.7507C27.1625 22.13 27.0625 21.8713 26.6625 21.8196C26.2625 21.7679 27.4125 21.7679 27.7625 23.2679" fill="#3E4347"/>
<path d="M26.3125 23.1646H27.2625C28.5625 23.1646 29.6125 24.768 29.6125 26.7852C29.6125 28.8025 28.5625 30.4059 27.2625 30.4059H26.3125C25.0125 30.4059 23.9625 28.8025 23.9625 26.7852C23.9625 24.768 25.0125 23.1646 26.3125 23.1646Z" fill="#3E4347"/>
<path d="M25.1624 26.7854C25.1624 27.7682 25.6624 28.5958 26.3124 28.5958C26.9624 28.5958 27.4624 27.7682 27.4624 26.7854C27.4624 25.8027 26.9624 24.9751 26.3124 24.9751C25.6624 24.9751 25.1624 25.8027 25.1624 26.7854Z" fill="#D0D0D0"/>
<path d="M26.3125 27.975C25.8707 27.975 25.5125 27.4424 25.5125 26.7854C25.5125 26.1283 25.8707 25.5957 26.3125 25.5957C26.7544 25.5957 27.1125 26.1283 27.1125 26.7854C27.1125 27.4424 26.7544 27.975 26.3125 27.975Z" fill="white"/>
<path opacity="0.25" d="M28.5625 26.7854C28.5625 28.8027 27.2125 30.0441 27.1625 29.8889C27.0625 29.7854 28.1625 28.5958 28.1125 26.7854C28.1625 24.9751 27.0625 23.7854 27.1625 23.682C27.2125 23.5268 28.5625 24.7682 28.5625 26.7854" fill="white"/>
<path d="M25.3626 20.6306L22.3626 1.44092H24.2626L27.1626 20.372C27.8626 20.6823 28.2626 21.4582 28.4126 22.4926L28.6626 23.9409C28.3126 23.4754 27.8126 23.1651 27.3126 23.1651L27.2626 22.7513C27.1626 22.0271 27.0126 21.7168 26.3626 21.872C26.1126 21.9237 26.1126 22.4926 26.2626 23.2168L26.8126 26.5789C26.8626 26.9409 26.6626 27.303 26.3126 27.3547C25.9626 27.4064 25.6626 27.1478 25.6126 26.7857L25.0626 23.4237C24.7626 22.2857 24.7126 21.1478 25.3626 20.6306Z" fill="#83BF4F"/>
<path d="M26.1126 21.4064C25.7126 21.2513 25.3126 21.8202 25.6626 23.734C26.0126 25.6478 26.1126 25.1306 25.8126 22.803C25.6126 21.4065 26.3626 21.5099 26.1126 21.4064ZM25.1626 12.0961C25.9126 16.6996 26.5626 20.4237 26.7126 20.4237C26.8126 20.4237 26.3126 16.6478 25.5626 12.0444C24.8126 7.44094 24.1626 3.7168 24.0126 3.7168C23.9126 3.7168 24.4626 7.49266 25.1626 12.0961Z" fill="#C7E755"/>
<path d="M23.9625 2.31998C22.6646 2.31998 21.6125 2.20419 21.6125 2.06136C21.6125 1.91852 22.6646 1.80273 23.9625 1.80273C25.2604 1.80273 26.3125 1.91852 26.3125 2.06136C26.3125 2.20419 25.2604 2.31998 23.9625 2.31998Z" fill="#C7E755"/>
</svg>
